<svg width="26" height="22" viewBox="0 0 26 22" fill="none" xmlns="http://www.w3.org/2000/svg">
<path d="M13.3268 1L10.1689 12.1579H15.6426" stroke="#161F38" stroke-width="1.5"/>
<path d="M12.9053 20.7649C17.3209 20.7649 21.0632 18.5702 21.0632 13.719" stroke="#161F38" stroke-width="1.5"/>
<path fill-rule="evenodd" clip-rule="evenodd" d="M21.0636 7.84207C21.0636 7.84207 24.59 6.57891 24.8005 3.84207C24.8531 3.15786 24.5418 1.93112 23.3268 1.52628C22.0636 1.10523 21.0636 2.20059 21.0636 2.20059C21.0636 2.20059 20.0636 1.10523 18.8005 1.52628C17.5855 1.93112 17.2742 3.15786 17.3268 3.84207C17.5373 6.57891 21.0636 7.84207 21.0636 7.84207Z" stroke="#161F38" stroke-width="1.5"/>
<path fill-rule="evenodd" clip-rule="evenodd" d="M4.74236 7.84207C4.74236 7.84207 8.26868 6.57891 8.4792 3.84207C8.53183 3.15786 8.22047 1.93112 7.00552 1.52628C5.74236 1.10523 4.74236 2.20059 4.74236 2.20059C4.74236 2.20059 3.74236 1.10523 2.4792 1.52628C1.26426 1.93112 0.952887 3.15786 1.00552 3.84207C1.21604 6.57891 4.74236 7.84207 4.74236 7.84207Z" stroke="#161F38" stroke-width="1.5"/>
</svg>
