<svg width="25" height="24" viewBox="0 0 25 24" fill="none" xmlns="http://www.w3.org/2000/svg">
<path fill-rule="evenodd" clip-rule="evenodd" d="M20.8484 18.364L12.2414 11.854L10.9834 8.24304L14.8004 8.47004L23.4064 14.98C23.8539 15.3184 24.1486 15.8207 24.2256 16.3764C24.3027 16.9321 24.1559 17.4956 23.8174 17.943L23.8094 17.953C23.1052 18.8841 21.7796 19.0681 20.8484 18.364V18.364Z" stroke="#161F38" stroke-width="1.5" stroke-linecap="round" stroke-linejoin="round"/>
<path d="M16.7461 6.04199V3.04199C16.7461 2.21357 16.0745 1.54199 15.2461 1.54199H3.24609C2.41767 1.54199 1.74609 2.21357 1.74609 3.04199V18.042C1.74609 18.8704 2.41767 19.542 3.24609 19.542H10.2461L13.7461 22.542V19.542H15.2461C15.8143 19.5422 16.3339 19.2212 16.5881 18.713" stroke="#161F38" stroke-width="1.5" stroke-linecap="round" stroke-linejoin="round"/>
<path d="M4.74609 4.54199H9.24609" stroke="#161F38" stroke-width="1.5" stroke-linecap="round" stroke-linejoin="round"/>
<path d="M6.99609 4.54199V9.04199" stroke="#161F38" stroke-width="1.5" stroke-linecap="round" stroke-linejoin="round"/>
<path d="M4.74609 12.792H8.49609" stroke="#161F38" stroke-width="1.5" stroke-linecap="round" stroke-linejoin="round"/>
<path d="M4.74609 15.792H10.7461" stroke="#161F38" stroke-width="1.5" stroke-linecap="round" stroke-linejoin="round"/>
</svg>
